<?xml version="1.0" standalone="no"?>
<!DOCTYPE svg PUBLIC "-//W3C//DTD SVG 20010904//EN"
 "http://www.w3.org/TR/2001/REC-SVG-20010904/DTD/svg10.dtd">
<svg version="1.0" xmlns="http://www.w3.org/2000/svg"
 width="1080.000000pt" height="1080.000000pt" viewBox="0 0 1080.000000 1080.000000"
 preserveAspectRatio="xMidYMid meet">
<metadata>
Created by potrace 1.11, written by Peter Selinger 2001-2013
</metadata>
<g transform="translate(0.000000,1080.000000) scale(0.100000,-0.100000)"
fill="#000000" stroke="none">
<path d="M5212 7880 c-6 -11 -12 -40 -12 -65 0 -45 31 -150 49 -168 7 -7 37 3
86 26 42 21 80 37 84 37 18 0 41 39 41 69 0 45 -37 61 -86 38 -46 -22 -51 -22
-59 11 -3 15 -13 37 -21 50 -18 28 -64 30 -82 2z"/>
<path d="M5007 7824 c-4 -4 -7 -22 -7 -41 0 -29 -3 -33 -25 -33 -30 0 -75 -41
-75 -68 0 -24 30 -52 56 -52 10 0 48 8 84 19 l65 18 -3 42 c-4 63 -32 115 -62
119 -14 2 -29 0 -33 -4z"/>
<path d="M5046 7494 c-22 -22 -20 -44 9 -85 27 -41 24 -49 -18 -49 -16 0 -48
-5 -71 -12 -116 -33 -114 -126 4 -142 44 -6 61 -3 118 23 37 16 82 33 100 36
21 4 32 12 32 23 -1 47 -58 158 -106 206 -20 20 -48 20 -68 0z"/>
<path d="M5389 7468 c0 -24 -2 -51 -4 -60 -3 -15 4 -18 38 -18 57 0 100 38 95
83 -3 32 -3 32 -65 35 l-63 3 -1 -43z"/>
<path d="M5304 7091 c-47 -12 -98 -55 -128 -111 -26 -48 -27 -52 -17 -127 6
-43 16 -116 22 -163 6 -47 13 -104 16 -127 5 -41 4 -43 -21 -43 -74 0 -265
121 -302 191 -18 36 -18 140 0 184 21 50 6 43 -29 -13 -26 -40 -30 -56 -29
-112 0 -60 4 -71 43 -129 24 -35 57 -76 75 -92 74 -67 215 -120 426 -159 58
-11 141 -27 185 -35 298 -56 351 -69 422 -110 120 -69 181 -141 192 -227 l7
-53 18 56 c13 43 14 66 7 98 -11 51 -65 119 -126 159 -57 37 -203 91 -269 99
-37 5 -59 15 -92 44 -26 23 -69 46 -111 59 -85 28 -234 104 -259 132 l-19 20
45 -7 c25 -4 88 -20 140 -35 52 -16 115 -32 140 -35 169 -26 380 -90 452 -138
71 -48 138 -86 138 -79 0 4 -10 23 -21 42 -65 107 -189 167 -396 194 -114 14
-106 -5 -77 177 15 98 16 125 6 170 -16 70 -42 111 -93 149 l-42 30 -136 -1
c-75 -1 -150 -4 -167 -8z"/>
<path d="M4634 6813 c-25 -62 -29 -124 -9 -184 23 -69 115 -163 198 -204 60
-29 93 -29 37 0 -51 26 -148 133 -177 194 -23 47 -27 70 -28 143 0 49 -1 88
-2 88 -2 0 -10 -17 -19 -37z"/>
<path d="M5132 6333 c-198 -312 -186 -616 31 -755 l50 -32 239 3 239 3 43 28
c115 78 176 185 176 309 0 140 -56 239 -171 301 -87 47 -247 104 -409 146 -74
19 -142 37 -151 39 -12 4 -26 -9 -47 -42z"/>
<path d="M2475 5119 c-132 -32 -282 -115 -366 -202 -49 -52 -106 -139 -133
-207 -47 -115 -45 -202 6 -261 24 -27 93 -69 115 -69 6 0 14 -4 17 -9 7 -11
-29 -160 -41 -172 -5 -5 -35 -11 -68 -15 -57 -7 -80 -18 -69 -36 3 -4 32 -8
65 -8 32 0 59 -3 59 -8 0 -4 -9 -39 -19 -77 -40 -143 -61 -225 -61 -235 0 -5
12 -10 28 -10 26 0 28 4 81 169 l54 169 61 11 c33 6 63 7 67 3 4 -4 22 -34 40
-67 96 -177 225 -317 354 -383 140 -72 271 -86 435 -48 81 19 115 42 146 99
24 44 25 49 8 42 -111 -46 -163 -58 -259 -58 -158 0 -274 44 -415 159 -120 97
-248 249 -237 279 3 7 32 23 64 34 205 74 426 241 525 396 127 198 113 364
-37 460 -104 67 -260 83 -420 44z m271 -78 c68 -31 124 -122 124 -200 0 -55
-51 -191 -100 -265 -83 -129 -222 -242 -374 -305 -82 -34 -212 -68 -222 -59
-3 4 5 40 18 80 l25 73 64 16 c76 19 135 48 167 82 26 27 48 105 35 118 -5 5
-25 -5 -45 -21 -74 -61 -199 -113 -185 -77 4 13 100 315 112 355 8 28 -4 28
-72 0 -43 -17 -55 -28 -61 -52 -5 -17 -26 -98 -48 -179 l-39 -149 -30 6 c-75
15 -119 81 -111 165 14 153 152 304 349 382 124 49 318 64 393 30z"/>
<path d="M6945 5125 c-150 -33 -279 -101 -382 -202 -139 -136 -211 -336 -159
-443 17 -37 70 -78 120 -95 28 -9 31 -14 29 -48 -1 -20 -9 -61 -18 -91 l-16
-54 -56 -7 c-70 -9 -83 -13 -83 -31 0 -10 15 -14 60 -14 33 0 60 -4 60 -10 0
-13 -59 -236 -71 -267 -16 -42 -11 -53 21 -53 28 0 30 3 60 97 16 54 30 102
30 108 0 5 6 22 14 37 8 15 17 40 21 57 8 36 23 46 85 54 70 10 196 54 300
105 52 26 100 50 105 55 6 4 46 34 90 66 44 33 108 89 143 125 35 36 65 66 66
66 4 0 -36 -115 -53 -150 -6 -14 -27 -81 -47 -150 -56 -196 -52 -305 15 -357
34 -26 95 -15 160 28 33 22 70 54 82 70 28 40 42 36 59 -18 28 -87 105 -109
202 -59 28 15 52 25 53 24 1 -2 8 -13 14 -25 14 -27 49 -30 89 -9 15 8 56 44
92 81 l65 68 7 -41 c10 -61 35 -101 73 -119 30 -14 42 -15 86 -5 55 13 102 45
186 125 l52 50 6 -39 c12 -73 15 -83 39 -111 22 -25 31 -28 80 -27 60 2 116
28 183 87 44 39 134 152 151 190 22 50 -7 28 -51 -40 -58 -90 -123 -153 -186
-183 -67 -31 -104 -21 -109 28 -3 28 0 32 20 32 75 1 181 89 226 188 60 130
66 223 17 276 -48 52 -134 29 -210 -56 -41 -46 -61 -81 -139 -250 -33 -70
-142 -190 -199 -217 -55 -27 -81 -26 -108 2 -18 19 -20 31 -17 97 4 58 14 98
46 177 68 168 109 233 147 233 53 0 58 -93 10 -197 -14 -31 -23 -59 -20 -62 4
-3 18 1 32 9 35 20 73 97 80 162 4 45 1 58 -19 88 -25 37 -50 46 -104 36 -68
-13 -176 -141 -219 -261 -19 -53 -106 -191 -149 -237 -30 -34 -56 -36 -56 -7
0 32 59 229 90 304 5 11 19 53 32 93 22 73 22 74 3 88 -27 20 -58 17 -73 -7
l-14 -21 -27 26 c-67 64 -208 0 -292 -132 -16 -25 -43 -82 -60 -127 -51 -133
-108 -213 -174 -245 -52 -25 -77 -25 -100 0 -15 17 -17 31 -12 92 3 40 15 103
26 140 19 59 26 69 65 92 126 73 308 353 357 546 22 88 16 123 -26 142 -60 27
-165 -52 -253 -190 l-27 -44 -5 84 c-4 67 -10 92 -33 131 -76 129 -274 188
-482 142z m240 -84 c76 -34 125 -113 125 -202 0 -57 -35 -156 -85 -242 -104
-177 -299 -315 -524 -372 -98 -25 -101 -19 -55 100 15 41 18 43 72 54 74 15
173 70 191 106 15 30 27 105 17 105 -3 0 -33 -20 -66 -44 -61 -45 -145 -84
-157 -72 -7 6 2 40 67 244 23 73 40 136 36 139 -6 7 -84 -21 -109 -40 -11 -7
-34 -76 -62 -181 -25 -94 -47 -172 -50 -174 -9 -9 -68 12 -95 35 -122 102 9
372 234 481 121 59 202 78 341 80 58 1 91 -3 120 -17z m552 -146 c-3 -30 -13
-69 -21 -87 -9 -17 -16 -35 -16 -40 0 -18 -82 -174 -127 -240 -76 -113 -153
-192 -170 -174 -3 3 8 34 24 68 17 35 56 119 88 188 108 237 171 340 208 340
18 0 19 -5 14 -55z m1088 -418 c15 -12 17 -23 12 -83 -15 -180 -114 -344 -208
-344 -24 0 -29 4 -29 26 0 65 112 331 164 387 29 31 35 32 61 14z m-875 -16
c5 -11 10 -35 10 -53 0 -44 -106 -354 -132 -387 -44 -57 -111 -78 -139 -44
-22 26 -15 138 16 229 54 161 136 274 200 274 24 0 38 -6 45 -19z"/>
<path d="M4919 4983 c-6 -16 -22 -71 -35 -123 -13 -52 -35 -129 -49 -170 -13
-41 -42 -133 -64 -205 -22 -71 -51 -168 -66 -215 -36 -117 -153 -290 -196
-290 -23 0 -3 80 86 342 l54 158 -22 15 c-30 21 -52 19 -70 -7 l-16 -23 -25
28 c-65 71 -229 -10 -306 -151 -17 -31 -42 -90 -55 -130 -39 -116 -154 -252
-215 -252 -20 0 -30 5 -30 15 0 8 27 90 61 183 44 122 62 186 66 239 5 67 4
73 -20 97 -49 49 -139 26 -231 -60 l-49 -46 8 39 c15 72 13 77 -29 87 -47 12
-60 -2 -70 -72 -10 -73 -63 -240 -93 -291 -89 -153 -261 -250 -293 -165 -13
33 -8 40 37 49 53 10 81 27 133 79 85 85 138 229 120 329 -19 103 -133 105
-230 4 -45 -48 -69 -89 -138 -237 -66 -141 -194 -260 -279 -260 -44 0 -74 79
-30 81 41 1 107 35 154 79 108 104 161 314 98 383 -48 51 -132 31 -212 -50
-54 -56 -125 -198 -150 -301 -29 -124 6 -215 89 -229 56 -8 152 41 230 117
l63 62 10 -60 c12 -67 24 -86 68 -109 46 -23 106 -9 183 43 36 25 76 57 89 72
32 38 39 24 20 -42 -9 -31 -14 -60 -10 -66 3 -5 25 -10 49 -10 l42 0 23 93
c44 180 92 295 159 384 41 56 115 80 142 48 18 -22 7 -115 -25 -205 -15 -41
-38 -118 -52 -171 -23 -86 -24 -99 -12 -125 30 -62 128 -36 226 59 29 28 56
47 60 43 4 -4 12 -26 18 -48 20 -82 101 -104 196 -54 51 26 69 27 69 1 0 -18
34 -28 69 -20 16 3 59 33 95 67 61 55 79 62 57 20 -4 -9 -11 -31 -14 -49 -5
-28 -3 -32 21 -40 37 -13 76 -2 80 22 15 90 89 310 124 372 59 103 100 143
149 143 33 0 40 -4 45 -26 11 -43 -3 -129 -35 -216 -80 -221 -81 -308 -3 -308
81 0 198 96 277 228 38 62 41 72 23 72 -7 0 -41 -42 -75 -93 -71 -107 -107
-144 -151 -156 -58 -17 -57 -3 18 216 49 141 60 187 60 238 0 57 -3 66 -26 84
-50 39 -125 22 -202 -45 -29 -26 -55 -44 -57 -42 -7 7 34 151 92 325 13 40 35
112 49 159 28 98 24 114 -32 114 -28 0 -36 -5 -45 -27z m-1838 -524 c14 -27 5
-89 -27 -189 -39 -124 -101 -202 -173 -216 -29 -6 -31 -4 -31 20 0 59 92 289
147 369 30 43 66 50 84 16z m403 5 c11 -28 6 -78 -14 -153 -44 -158 -123 -261
-201 -261 -20 0 -21 4 -16 44 9 61 79 236 128 319 34 58 44 67 68 67 17 0 31
-7 35 -16z m1020 -6 c9 -12 16 -29 16 -38 0 -8 -25 -96 -57 -195 -52 -160 -62
-184 -99 -222 -44 -47 -89 -57 -118 -27 -40 39 -5 220 67 358 69 129 151 182
191 124z"/>
<path d="M5384 4558 c-18 -8 -20 -16 -16 -57 5 -57 -18 -109 -72 -160 -35 -34
-44 -51 -28 -51 14 0 119 93 151 134 22 28 31 49 31 77 0 68 -16 82 -66 57z"/>
<path d="M5745 4520 c-22 -10 -50 -27 -61 -38 -28 -24 -64 -95 -64 -124 0 -13
29 -70 65 -128 76 -122 86 -159 59 -209 -21 -39 -76 -81 -106 -81 -11 0 -33 9
-49 21 -26 18 -29 26 -29 77 0 73 14 124 45 160 27 32 24 42 -12 42 -51 0 -92
-47 -120 -135 -40 -127 11 -201 137 -198 98 2 177 50 219 131 33 64 28 107
-21 188 -74 121 -82 143 -67 198 20 74 75 109 113 70 21 -21 20 -49 -4 -119
-11 -32 -20 -60 -20 -62 0 -12 26 2 54 30 58 57 69 97 40 143 -36 54 -108 68
-179 34z"/>
</g>
</svg>
